<?xml version="1.0" encoding="UTF-8"?>
<svg width="1200pt" height="1200pt" version="1.1" viewBox="0 0 1200 1200" xmlns="http://www.w3.org/2000/svg">
 <path d="m811.2 640.8c-49.199-10.801-99.602-13.199-147.6-16.801-111.6-9.6016-222-7.1992-333.6-3.6016-57.602 2.3984-114-14.398-171.6-6-31.199 3.6016-61.199 6-92.398 1.1992-15.602-2.3984-25.199-9.6016-31.199-22.801-12-26.398-3.6016-42 26.398-43.199 37.199-2.3984 74.398-4.8008 111.6-4.8008 123.6 2.3984 247.2-12 370.8-3.6016 73.199 4.8008 145.2 7.1992 218.4 9.6016 14.398 0 30 3.6016 45.602-3.6016-1.1992-4.8008-2.3984-8.3984-3.6016-12-6-14.398-18-27.602-3.6016-42 14.398-15.602 33.602-21.602 55.199-13.199 43.199 18 90 20.398 133.2 39.602 36 15.602 78 18 118.8 20.398 15.602 1.1992 31.199 1.1992 45.602 7.1992 16.801 6 24 19.199 24 36 1.1992 15.602-6 26.398-21.602 32.398-7.1992 2.3984-14.398 8.3984-21.602 7.1992-38.398-4.8008-73.199 10.801-110.4 13.199-51.602 4.8008-99.602 21.602-139.2 57.602-6 4.8008-12 10.801-18 14.398-30 16.801-57.602 2.3984-58.801-32.398-1.1953-11.992 1.207-22.793 3.6055-34.793z"/>
</svg>
