<?xml version="1.0" encoding="UTF-8"?>
<svg width="1200pt" height="1200pt" version="1.1" viewBox="0 0 1200 1200" xmlns="http://www.w3.org/2000/svg">
 <path d="m823.36 384.24c3.7969-27.281 3.7031-102.05 6.5625-102.23 0.375-11.297-2.4844-16.078-6.5625-23.859-7.3594-4.9688-21.234-8.2969-38.391-10.594-7.0312-62.109 28.172-131.86-2.7188-187.26-18.469-31.875-61.547-31.125-82.875-8.2969-21.516 23.062-19.312 148.22-11.391 191.21-7.7344 0-15.281 0.046875-22.5 0.14062-48.703 0.46875-103.17 0.89062-153.37 2.8125-4.1719-60.562 27.609-127.5-2.25-181.08-18.469-31.875-61.594-31.125-82.875-8.2969-21.891 23.438-19.266 152.44-11.062 193.36 0.14062 0.70313 0.42188 1.4062 0.75 2.1562-14.719 1.9688-27.703 5.4844-39.375 13.125-13.359 7.0781-4.8281 134.29-1.4062 154.69 4.3125 25.969 12.281 84.562 20.672 109.5 25.031 74.391 115.31 108.19 212.58 108.8 4.125 14.766 21.516 29.625 28.266 45.328 48.422 112.41-79.406 168.1-138.14 212.72-47.859 36.422-98.672 82.031-116.02 140.86-7.3125 24.844-22.641 92.766 11.062 127.08 24.516-16.734 8.8125-39.328 8.2969-52.5-3.5156-89.109 70.922-147.24 127.08-190.6 40.641-31.406 88.875-54.609 113.25-88.406 39.047-54.141 37.781-144.84 2.7188-195.79 29.438-2.25 58.828-7.4062 86.625-15.281 22.406-6.375 58.875-31.453 71.812-55.266 9.5625-17.672 20.859-56.953 22.125-88.406 1.0781-30.609-6.9375-64.5-2.8594-93.891zm-104.95 196.13c-93.188 30.094-231.42 27.469-281.58-42.094-17.062-23.672-24.891-85.688-30.562-115.36-3.8906-20.25-17.391-108.14-9.1406-129.14 1.5-0.375 3.2812-0.75 5.0625-1.1719 9.375 60.562 38.719 226.45 83.062 264.14 71.391 60.656 204 27.234 270.14 4.875-11.953 8.4375-25.734 15.141-36.984 18.75z" fill-rule="evenodd"/>
</svg>
