<svg version="1.2" xmlns="http://www.w3.org/2000/svg" viewBox="0 0 719 1085" width="719" height="1085">
	<style>
		.s0 { fill: #000000 } 
	</style>
	<path class="s0" d="m664.08 503.56c-24.48-3.24-53.04 16.8-60.24 42.72-13.68 49.68-26.4 99.12-59.28 141.36-35.4 45.36-78.6 78.36-133.68 92.52-91.92 23.76-206.4-20.64-263.4-96.48-35.16-46.8-44.4-100.44-48.48-156.36-1.68-23.64-20.76-38.76-44.52-37.08-23.76 1.68-42.84 20.04-43.8 41.76-2.52 58.2 12.84 112.56 35.76 165.24 32.4 74.16 87.84 123.72 164.16 149.16 37.68 12.6 76.56 21.72 114.36 32.4v88.56c-15 0-28.08-0.72-41.04 0.24-13.07 0.84-26.28 2.28-38.88 5.28-28.8 6.84-42.6 45.84-22.32 65.28 18.97 18.24 40.68 33.96 68.88 34.08 50.04 0.24 100.2 1.32 150.24-1.2 20.16-0.96 40.68-8.28 59.52-16.32 23.28-9.96 32.04-29.88 27.12-52.08-5.04-22.68-18.48-32.4-45.36-34.32-19.68-1.44-39.23-4.2-60.23-6.6v-86.28c3.48-0.96 6.36-1.68 9.12-2.64 46.2-16.08 96.72-25.08 137.76-49.8 99.24-59.64 136.2-155.4 134.28-267.84-0.48-28.44-17.52-48.84-39.96-51.84z"/>
	<path class="s0" d="m237.6 411.28c-5.16 4.68-12.96 6.84-23.16 7.08-21.36 0.36-42.72 1.68-65.88 2.88 0.12 6.24 0.36 12.48 0.48 18.84 0.24 8.28 1.08 16.44 2.4 24.6l3.12 17.76c19.68 0.12 38.64 0 57.24 1.08 14.4 0.72 28.8 2.88 43.08 5.4 17.28 3.12 16.07 15.84 6 22.56-13.2 8.76-29.64 14.64-45.48 17.39-16.44 2.88-33.61 2.65-52.08 3.24 3.48 19.8 7.32 40.56 11.4 61.32 3.96 20.16 9.36 40.8 18.48 59.04 19.32 39.12 58.07 52.32 95.88 66 70.44 25.32 129.96 14.88 175.68-30.6 0.23-0.24 0.36-0.36 0.6-0.6 30-29.76 51.96-66.72 63.84-107.28l19.08-64.92c-6.36 1.8-10.32 2.28-15.36 2.76-16.56 1.56-33.24 3.6-49.68 3-11.52-0.48-21.84-7.44-16.44-21 3.35-8.28 10.8-18.36 18.48-20.64 20.52-6.12 42.35-7.8 63.35-12.84 3.61-0.84 7.81-2.88 11.29-5.4 2.64-16.08 4.92-32.16 6.96-48.36-29.04-2.28-58.8 6.84-80.52-15.48-2.88-28.32 13.32-33.84 35.64-33 16.08 0.6 32.4 0.48 49.44 0.36 0.96-15.6 1.44-31.32 1.92-47.04-26.16 1.2-50.04 2.4-73.68 3.36-16.68 0.72-30.12-5.16-33-22.92-3.6-21.72 13.8-21.96 27.24-23.16 23.04-2.16 46.08-4.08 69.12-3.24 5.16 0.24 9.36-0.12 12.72-1.08 0.36-5.4 0.84-10.92 1.32-16.32 6-61.8-15.72-118.2-47.64-164.76-39.72-57.72-105.24-87.12-176.28-75.24-85.08 14.16-158.4 71.16-184.44 163.56-9.24 32.88-14.64 66-17.52 100.2 23.28 0 41.76-0.6 59.64 1.92h0.36c18.96 2.77 25.32 27.13 10.08 38.77q-3.42 2.7-7.2 4.68c-7.68 4.07-19.56 0-29.52-0.12-11.88-0.24-23.77-0.36-35.88-0.61l-0.6 57.24 73.44-3.48c18.48-0.84 30.12 22.32 16.32 34.68z"/>
</svg>