<svg version="1.2" xmlns="http://www.w3.org/2000/svg" viewBox="0 0 781 723" width="781" height="723">
	<style>
		.s0 { fill: #000000 } 
	</style>
	<path class="s0" d="m765.76 159.34c-0.31-58.78-46.73-117.49-107.22-137.05l0.25-1.32c-38.59-11.03-81.73-5.8-123.46-0.74-26.55 3.21-51.61 6.25-75.5 5.38-39.41-1.43-69.29-1.68-99.85-0.8-25.72 0.77-51.84-0.63-77.13-1.95-25.29-1.32-51.47-2.68-77.34-1.98-32.06 0.89-78.02 4.5-106.78 25.6-37.71 27.67-54.77 83.52-67.22 124.31-12.52 41.01-15.74 85.94-17.97 128.44-1.33 25.4-1.24 50.45 0.23 74.47 0.46 7.38 0.28 15.47 0.1 24.03-0.38 17.26-0.77 35.09 3.96 50.22 11.21 35.85 43.5 66.73 84.25 80.57 11.4 3.87 25.73 7.19 39.31 9.1 14.18 2.01 27.45-0.45 40.27-2.82 9.42-1.74 18.08-3.45 27.46-3.35 2.12 0 4.93-0.04 8.07-0.12 9.55-0.22 25.55-0.55 31.13 1.47q1.11 0.4 2.1 0.65 0.62 2.79 1.61 6.18c1.41 4.88 1.68 10.98 1.92 16.87 0.1 2.19 0.19 4.34 0.33 6.39 0.3 4.21 0.45 8.44 0.61 12.66 0.3 8.03 0.61 16.33 1.85 24.58 1.52 10.1 0.92 20.46 0.29 31.41-0.74 12.61-1.49 25.66 1.27 38.39 4.76 21.89 14.39 34.88 28.6 38.56q4.16 1.08 8.59 1.07c34.5 0 80.91-47.02 122.46-94.11 3.1-3.5 5.71-6.48 7.77-8.72 4.5-4.93 8.88-10.24 13.29-15.62 10.85-13.2 22.06-26.86 36.1-35.27 9-5.39 15.52-3.81 26.35-1.16l5.75 1.37c19.37 4.35 39.2 2.87 58.53 1.43l12.09-0.85c43.04-2.95 87.55-6.01 122-36.93 25.14-22.57 41.07-53.35 47.35-91.48 4.8-29.18 7.1-59.39 9.3-88.61 1.17-15.36 2.32-30.69 3.83-45.86 1-10.05 2.28-20.07 3.56-30.08 4.36-33.87 8.85-68.86 1.88-104.32zm-476.07 147.84c-0.3 4.39-0.61 8.77-0.63 13.04l0.02 2.35c0.07 5.03 0.15 10.74-3.39 16.3-6.31 9.97-21.27 11.13-31.98 11.13l-2.74-0.02c-16.02-0.21-32.88-0.7-47.36-4.23-9.27-2.26-11.23-11.89-12.38-17.65-0.64-3.16-0.78-6.07-0.92-9.09-0.06-1.4-0.13-2.82-0.27-4.31-0.17-1.89-0.68-3.73-1.18-5.56-0.53-2.04-1.06-4.1-1.37-6.22-0.98-6.74-0.32-13.39 0.31-19.82 0.37-3.77 0.76-7.54 0.74-11.24-0.02-8.08-0.06-19.96 13.31-21.84 4-0.54 8.32-0.4 12.53-0.22 7.47 0.35 14.3 0.17 21.25 0.24 10.86 0.11 21.67 0.36 32.66 0.85 3.64 0.16 6.62 0.61 8.85 1.36 11.31 3.79 11.69 15.16 11.93 22.69 0.06 2.04 0.11 4 0.39 5.74 1.46 8.73 0.84 17.76 0.23 26.5zm168 0c-0.3 4.39-0.61 8.77-0.63 13.04l0.02 2.35c0.07 5.03 0.15 10.74-3.39 16.3-6.31 9.97-21.27 11.13-31.98 11.13l-2.74-0.02c-16.02-0.21-32.88-0.7-47.36-4.23-9.27-2.26-11.23-11.89-12.38-17.65-0.64-3.16-0.78-6.07-0.92-9.09-0.06-1.4-0.13-2.82-0.27-4.31-0.17-1.89-0.68-3.73-1.18-5.56-0.53-2.04-1.06-4.1-1.37-6.22-0.98-6.74-0.32-13.39 0.31-19.82 0.37-3.77 0.76-7.54 0.74-11.24-0.02-8.08-0.06-19.96 13.31-21.84 4-0.54 8.32-0.4 12.53-0.22 7.47 0.35 14.3 0.17 21.25 0.24 10.86 0.11 21.67 0.36 32.66 0.85 3.64 0.16 6.62 0.61 8.85 1.36 11.31 3.79 11.69 15.16 11.93 22.69 0.06 2.04 0.11 4 0.39 5.74 1.46 8.73 0.84 17.76 0.23 26.5zm156 0c-0.3 4.39-0.61 8.77-0.63 13.04l0.02 2.35c0.07 5.03 0.15 10.74-3.39 16.3-6.31 9.97-21.27 11.13-31.98 11.13l-2.74-0.02c-16.02-0.21-32.88-0.7-47.36-4.23-9.27-2.26-11.23-11.89-12.38-17.65-0.64-3.16-0.78-6.07-0.92-9.09-0.06-1.4-0.13-2.82-0.27-4.31-0.17-1.89-0.68-3.73-1.18-5.56-0.53-2.04-1.06-4.1-1.37-6.22-0.98-6.74-0.32-13.39 0.31-19.82 0.37-3.77 0.76-7.54 0.74-11.24-0.02-8.08-0.06-19.96 13.31-21.84 4-0.54 8.32-0.4 12.53-0.22 7.46 0.35 14.29 0.17 21.25 0.24 10.86 0.11 21.67 0.36 32.66 0.85 3.64 0.16 6.62 0.61 8.85 1.36 11.31 3.79 11.69 15.16 11.93 22.69 0.06 2.04 0.11 4 0.39 5.74 1.46 8.73 0.84 17.76 0.23 26.5z"/>
</svg>