<svg version="1.2" xmlns="http://www.w3.org/2000/svg" viewBox="0 0 1200 1200" width="1200" height="1200">
	<style>
		.s0 { fill: #000000 } 
		.s1 { fill: #ffbf00;stroke: #000000;stroke-miterlimit:100;stroke-width: 30 } 
		.s2 { fill: #ffbf00 } 
	</style>
	<path id="Layer 1" fill-rule="evenodd" class="s0" d="m598.02 979.17c-212.97 0-385.11-167.5-385.11-374.71 0-207.22 172.14-374.72 385.11-374.72 212.97 0 385.11 167.5 385.11 374.72 0 207.21-172.14 374.71-385.11 374.71z"/>
	<path class="s1" d="m1163.81 554.22q-14.12-64.81-21.97-92.31-7.05-27.44-35.17-96.69-28-69.4-65.05-120.43-36.26-50.04-177.58-138.02-140.57-87.96-239.97-87.9-99.35 0-210.11 50.98-110.76 50.11-174.94 107.25-64.99 56.32-123.07 139.77-57.32 84.21-77.36 159.12-19.15 75.78-17.58 158.23 1.65 83.47 18.46 140.66 16.88 57.11 54.51 118.67 38.35 62.4 68.57 103.74 31.14 42.3 104.61 103.73 73.51 62.2 286.58 79.12 90.55-2.64 184.61-21.11 87.02-19.33 151.21-49.22 60.66-29.12 113.39-80.87 53.41-51.61 72.08-68.57 19.46-16.05 61.54-123.95 42.28-108.02 42.19-162.64-0.05-53.76-14.95-119.56zm-436.9-49.22q-29.89 0-43.07-31.64-7.92-31.65-7.92-33.41 0-80 58.02-75.6 58.02 3.51 58.03 68.57-11.44 72.08-65.06 72.08zm-203.07 247.02q27.25-23.74 69.45-15.83 38.69 7.04 68.57 36.05 30.76 30.77 30.77 69.45-0.01 25.49-15.83 52.75-26.37 43.95-80.88 43.95-59.77 0-87.02-48.35-15.83-28.13-15.82-52.75 0-58.89 30.76-85.27zm-7.9-319.09q-11.44 72.08-65.05 72.08-29.9 0-43.09-31.64-7.91-31.65-7.91-33.41 0-80 58.03-75.6 58.01 3.51 58.02 68.57zm30.76 434.26q13.2 27.26 33.4 27.26 43.96 0 60.67-26.38 7.9-25.48 7.9-26.37 0-49.22-55.38-54.5-56.26-5.27-56.26 49.23 0 10.55 9.67 30.76z"/>
	<path id="Layer 1 copy" fill-rule="evenodd" class="s0" d="m599.78 900.96c-36.01 0-65.12-28.32-65.12-63.36 0-35.04 29.11-63.36 65.12-63.36 36.01 0 65.11 28.32 65.11 63.36 0 35.04-29.1 63.36-65.11 63.36z"/>
	<path id="Layer 2" fill-rule="evenodd" class="s2" d="m847.5 264.84v106.92h-523.71v-106.92z"/>
	<g id="Folder 1">
		<path class="s0" d="m362.94 885.65c-12.62-1.67-27.34 8.66-31.05 22.02-7.06 25.61-13.61 51.09-30.56 72.86-18.25 23.38-40.52 40.39-68.91 47.69-47.38 12.25-106.39-10.64-135.77-49.73-18.12-24.12-22.88-51.77-24.99-80.6-0.86-12.18-10.7-19.98-22.94-19.11-12.25 0.87-22.09 10.33-22.58 21.53-1.3 30 6.62 58.02 18.43 85.17 16.7 38.23 45.28 63.77 84.62 76.89 19.42 6.49 39.46 11.19 58.95 16.7v45.65c-7.74 0-14.48-0.37-21.16 0.12-6.74 0.43-13.54 1.17-20.04 2.72-14.84 3.53-21.96 23.63-11.5 33.65 9.77 9.4 20.97 17.51 35.5 17.57 25.79 0.12 51.65 0.68 77.44-0.62 10.39-0.5 20.97-4.27 30.68-8.41 12-5.14 16.52-15.41 13.98-26.85-2.59-11.69-9.52-16.7-23.38-17.69-10.14-0.74-20.22-2.16-31.05-3.4v-44.48c1.8-0.49 3.28-0.86 4.7-1.36 23.82-8.28 49.86-12.92 71.01-25.67 51.16-30.74 70.21-80.1 69.22-138.06-0.25-14.66-9.03-25.17-20.6-26.72z"/>
		<path class="s0" d="m143.11 838.08c-2.66 2.41-6.69 3.53-11.94 3.65-11.01 0.19-22.02 0.87-33.96 1.48 0.06 3.22 0.19 6.44 0.25 9.72 0.12 4.26 0.55 8.47 1.23 12.68l1.61 9.15c10.15 0.06 19.92 0 29.51 0.56 7.42 0.37 14.84 1.48 22.2 2.78 8.91 1.61 8.29 8.17 3.09 11.63-6.8 4.52-15.28 7.55-23.44 8.97-8.47 1.48-17.32 1.36-26.84 1.67 1.79 10.2 3.77 20.9 5.87 31.6 2.04 10.4 4.83 21.03 9.53 30.44 9.96 20.16 29.93 26.96 49.42 34.02 36.31 13.05 66.99 7.66 90.55-15.78 0.13-0.12 0.19-0.18 0.31-0.31 15.47-15.34 26.79-34.39 32.91-55.3l9.83-33.46c-3.27 0.93-5.32 1.18-7.91 1.42-8.54 0.81-17.14 1.86-25.61 1.55-5.94-0.25-11.26-3.84-8.47-10.83 1.73-4.26 5.56-9.46 9.52-10.63 10.58-3.16 21.83-4.03 32.66-6.62 1.86-0.44 4.02-1.49 5.81-2.79 1.37-8.28 2.54-16.57 3.59-24.92-14.97-1.18-30.31 3.52-41.5-7.98-1.49-14.6 6.86-17.44 18.37-17.01 8.29 0.31 16.7 0.25 25.48 0.18 0.5-8.04 0.75-16.14 0.99-24.24-13.48 0.61-25.79 1.23-37.97 1.73-8.6 0.37-15.53-2.66-17.01-11.82-1.86-11.19 7.11-11.32 14.04-11.93 11.87-1.12 23.75-2.11 35.62-1.67q3.98 0.18 6.56-0.56c0.19-2.78 0.43-5.63 0.68-8.41 3.09-31.86-8.1-60.93-24.56-84.93-20.47-29.75-54.24-44.9-90.86-38.78-43.85 7.3-81.65 36.68-95.07 84.31-4.76 16.95-7.55 34.02-9.03 51.65 12 0 21.53-0.31 30.74 0.99h0.19c9.77 1.42 13.05 13.98 5.19 19.98q-1.76 1.39-3.71 2.41c-3.96 2.1-10.08 0-15.22-0.06-6.12-0.13-12.24-0.19-18.49-0.31l-0.31 29.5 37.86-1.79c9.52-0.44 15.52 11.5 8.41 17.87z"/>
	</g>
</svg>