<svg version="1.2" xmlns="http://www.w3.org/2000/svg" viewBox="0 0 1200 1200" width="1200" height="1200">
	<style>
		.s0 { fill: #000000 } 
		.s1 { fill: #ffbf00;stroke: #000000;stroke-miterlimit:100;stroke-width: 30 } 
		.s2 { fill: #ffbf00 } 
	</style>
	<path id="Layer 1" fill-rule="evenodd" class="s0" d="m598.02 979.17c-212.97 0-385.11-167.5-385.11-374.71 0-207.22 172.14-374.72 385.11-374.72 212.97 0 385.11 167.5 385.11 374.72 0 207.21-172.14 374.71-385.11 374.71z"/>
	<path class="s1" d="m1163.81 554.22q-14.12-64.81-21.97-92.31-7.05-27.44-35.17-96.69-28-69.4-65.05-120.43-36.26-50.04-177.58-138.02-140.57-87.96-239.97-87.9-99.35 0-210.11 50.98-110.76 50.11-174.94 107.25-64.99 56.32-123.07 139.77-57.32 84.21-77.36 159.12-19.15 75.78-17.58 158.23 1.65 83.47 18.46 140.66 16.88 57.11 54.51 118.67 38.35 62.4 68.57 103.74 31.14 42.3 104.61 103.73 73.51 62.2 286.58 79.12 90.55-2.64 184.61-21.11 87.02-19.33 151.21-49.22 60.66-29.12 113.39-80.87 53.41-51.61 72.08-68.57 19.46-16.05 61.54-123.95 42.28-108.02 42.19-162.64-0.05-53.76-14.95-119.56zm-436.9-49.22q-29.89 0-43.07-31.64-7.92-31.65-7.92-33.41 0-80 58.02-75.6 58.02 3.51 58.03 68.57-11.44 72.08-65.06 72.08zm-203.07 247.02q27.25-23.74 69.45-15.83 38.69 7.04 68.57 36.05 30.76 30.77 30.77 69.45-0.01 25.49-15.83 52.75-26.37 43.95-80.88 43.95-59.77 0-87.02-48.35-15.83-28.13-15.82-52.75 0-58.89 30.76-85.27zm-7.9-319.09q-11.44 72.08-65.05 72.08-29.9 0-43.09-31.64-7.91-31.65-7.91-33.41 0-80 58.03-75.6 58.01 3.51 58.02 68.57zm30.76 434.26q13.2 27.26 33.4 27.26 43.96 0 60.67-26.38 7.9-25.48 7.9-26.37 0-49.22-55.38-54.5-56.26-5.27-56.26 49.23 0 10.55 9.67 30.76z"/>
	<path id="Layer 1 copy" fill-rule="evenodd" class="s0" d="m599.78 900.96c-36.01 0-65.12-28.32-65.12-63.36 0-35.04 29.11-63.36 65.12-63.36 36.01 0 65.11 28.32 65.11 63.36 0 35.04-29.1 63.36-65.11 63.36z"/>
	<path id="Layer 2" fill-rule="evenodd" class="s2" d="m847.5 318.84v106.92h-523.71v-106.92z"/>
</svg>