<svg version="1.2" xmlns="http://www.w3.org/2000/svg" viewBox="0 0 1200 1200" width="1200" height="1200">
	<style>
		.s0 { fill: #000000;stroke: #000000;stroke-miterlimit:100;stroke-width: 30 } 
		.s1 { fill: #ffbf00;stroke: #000000;stroke-miterlimit:100;stroke-width: 30 } 
	</style>
	<path id="Layer 1" fill-rule="evenodd" class="s0" d="m597.7 945c-202.74 0-366.62-156.48-366.62-350.06 0-193.58 163.88-350.06 366.62-350.06 202.74 0 366.62 156.48 366.62 350.06 0 193.58-163.88 350.06-366.62 350.06z"/>
	<path class="s1" d="m1126.18 557.28q-13.19-60.49-20.5-86.14-6.58-25.61-32.83-90.24-26.13-64.77-60.71-112.39-33.84-46.7-165.72-128.8-131.19-82.11-223.96-82.05-92.71 0-196.08 47.58-103.36 46.77-163.27 100.09-60.63 52.57-114.84 130.45-53.51 78.58-72.19 148.49-17.88 70.72-16.41 147.68 1.54 77.89 17.22 131.26 15.76 53.29 50.87 110.75 35.8 58.24 63.99 96.82 29.07 39.48 97.63 96.8 68.6 58.05 267.44 73.84 84.52-2.47 172.29-19.7 81.22-18.05 141.12-45.94 56.62-27.17 105.83-75.47 49.84-48.17 67.27-63.99 18.15-14.97 57.43-115.68 39.46-100.81 39.37-151.78-0.04-50.17-13.95-111.58zm-620.21-172.28q-10.67 67.28-60.71 67.28-27.9 0-40.21-29.55-7.38-29.53-7.39-31.17 0-74.65 54.16-70.55 54.15 3.28 54.15 63.99zm196.89 67.28q-27.89 0-40.2-29.55-7.39-29.53-7.39-31.17 0-74.65 54.15-70.55 54.16 3.28 54.16 63.99-10.68 67.28-60.72 67.28zm-388.04 226.43q12.26 20.46 31.17 48.4 19.09 27.88 58.24 63.99 46.06 41.64 130.46 56.61 63.44 10.94 105 0 61.54-4.1 129.63-45.12 56.6-34.46 82.04-69.73 27.82-40.26 35.28-56.61 7.55-16.38 16.4-48.4 8.82-31.27 18.05-28.72 9.37 3.54 9.85 18.87 1.31 15.28-7.39 54.97-8.06 40.39-94.34 126.34-85.58 86.97-199.37 90.24h-84.49q-21.33-2.46-68.92-19.69-50.04-18.87-68.91-30.35-22.3-13.19-47.58-41.85-25.07-27.87-34.46-39.37-9.4-11.49-29.53-47.59-19.5-35.23-27.08-49.22-14.76-27.89-14.77-38.56-0.05-27 13.95-18.05 14.95 8.77 24.61 31.18 9.67 22.39 22.16 42.66z"/>
</svg>