<svg version="1.2" xmlns="http://www.w3.org/2000/svg" viewBox="0 0 527 522" width="527" height="522">
	<style>
		.s0 { fill: #000000 } 
	</style>
	<path class="s0" d="m505.77 243.75q-6.07-27.86-9.45-39.68-3.02-11.79-15.11-41.56-12.04-29.83-27.96-51.76-15.59-21.51-76.33-59.33-60.42-37.81-103.15-37.78-42.7 0-90.31 21.91-47.61 21.54-75.2 46.1-27.93 24.21-52.89 60.08-24.64 36.2-33.25 68.39-8.24 32.57-7.56 68.02 0.71 35.87 7.93 60.45 7.26 24.55 23.43 51.01 16.49 26.83 29.47 44.59 13.39 18.19 44.97 44.59 31.6 26.73 123.18 34.01 38.92-1.14 79.35-9.07 37.41-8.32 64.99-21.16 26.08-12.52 48.75-34.77 22.95-22.18 30.98-29.47 8.36-6.89 26.45-53.28 18.18-46.42 18.14-69.9-0.03-23.11-6.43-51.39zm-368.79 92.58q-4.33-5.3-13.6-21.92-8.98-16.23-12.47-22.67-6.8-12.85-6.8-17.76-0.01-4.04 0.76-6.42-0.76-2.4-0.76-2.65 0-3.02 1.89-5.67 2.64-3.4 7.56-3.4h297q7.93 2.27 7.93 9.45 0 4.05-2.64 6.42 0.6 7.04-3.41 25.32-3.71 18.6-43.45 58.19-39.41 40.06-91.82 41.56h-38.92q-9.82-1.13-31.73-9.07-23.06-8.69-31.75-13.98-10.27-6.07-21.91-19.27-11.55-12.84-15.88-18.13zm82.76-146.24q-8.31-19.64-21.54-21.16-12.47-1.13-25.69 17.01-7.94 11.34-7.18 3.78 6.04-40.05 31.36-40.05 17.38 0 24.94 18.13 4.53 18.14 3.02 34.01c0 0-4.91-11.71-4.91-11.72zm103.54-17.75q-12.47-1.14-25.7 17-7.93 11.34-7.18 3.78 6.05-40.06 31.37-40.06 17.38 0 24.94 18.14 4.53 18.14 3.02 34.01l-4.92-11.71q-8.31-19.65-21.53-21.16z"/>
</svg>